<svg width="20" height="20" viewBox="0 0 20 20" fill="none" xmlns="http://www.w3.org/2000/svg">
<g id="login-04">
<path id="Vector" d="M12.2058 13.5V15.25C12.2058 15.7141 12.0198 16.1592 11.6889 16.4874C11.3579 16.8156 10.9091 17 10.4411 17H4.26459C3.79656 17 3.3477 16.8156 3.01675 16.4874C2.6858 16.1592 2.49988 15.7141 2.49988 15.25L2.49988 4.75C2.49988 4.28587 2.6858 3.84075 3.01675 3.51256C3.3477 3.18438 3.79656 3 4.26458 3L10.4411 3C10.9091 3 11.3579 3.18437 11.6889 3.51256C12.0198 3.84075 12.2058 4.28587 12.2058 4.75V6.5M17.4999 10.0001L6.07837 10.0001M6.07837 10.0001L8.72543 12.6251M6.07837 10.0001L8.72543 7.37508" stroke="#16191D" stroke-width="2" stroke-linecap="round" stroke-linejoin="round"/>
</g>
</svg>
